# Blender v2.76 (sub 0) OBJ File: ''
# www.blender.org
mtllib chest_closed_triangulated.mtl
o Cube.001
v 0.899520 -0.594207 -0.556073
v 0.899520 -0.594207 0.594260
v -0.899046 -0.594207 0.594260
v -0.899046 -0.594207 -0.556073
v 0.899520 0.199877 -0.556072
v 0.898650 0.199380 0.594260
v -0.899046 0.199877 0.594260
v -0.899002 0.199629 -0.556073
v -0.898959 0.537454 0.484413
v 0.898650 0.537454 0.484413
v 0.898650 0.746396 0.196830
v -0.898959 0.746396 0.196830
v 0.898650 0.746396 -0.158642
v -0.898959 0.746396 -0.158642
v -0.898959 0.537454 -0.446226
v 0.898650 0.537454 -0.446226
v -0.898616 0.199380 0.594260
v 0.898650 0.199380 -0.556073
v -0.140683 0.281306 0.686921
v -0.140683 0.281306 0.575774
v -0.140683 -0.006278 0.575774
v -0.140683 -0.006278 0.686921
v 0.140717 0.281306 0.575774
v 0.140717 -0.006278 0.575774
v 0.140717 0.281306 0.686921
v 0.140717 -0.006278 0.686921
vn 0.000000 -1.000000 -0.000000
vn 1.000000 0.000400 0.000500
vn 1.000000 0.000900 0.000500
vn 1.000000 0.000500 0.000500
vn 0.000000 -0.000000 1.000000
vn -1.000000 0.000000 -0.000000
vn -1.000000 0.000100 -0.000000
vn 0.000000 0.000000 -1.000000
vn 0.000000 0.809000 0.587800
vn 0.000000 1.000000 0.000000
vn -1.000000 0.000300 0.000000
vn -1.000000 0.000200 -0.000000
vn 0.000000 0.809000 -0.587800
vn 0.000000 0.309000 0.951100
vn 0.000000 0.309000 -0.951000
vn 0.000000 0.309000 -0.951100
vn 0.000000 0.309200 -0.951000
vn 1.000000 0.000000 0.000000
vn 1.000000 0.002600 0.000000
vn 1.000000 0.000600 0.000600
vn 1.000000 0.001100 0.000000
usemtl Material.001
s 1
f 2//1 3//1 4//1
f 1//2 5//3 6//4
f 6//5 7//5 3//5
f 3//6 7//7 8//7
f 1//8 4//8 8//8
f 10//9 11//9 12//9
f 11//10 13//10 14//10
f 7//7 9//11 15//12
f 13//13 16//13 15//13
f 17//14 6//14 10//14
f 16//15 18//16 8//17
f 9//6 12//6 14//6
f 10//18 16//18 13//18
f 5//3 16//19 10//20
f 20//6 21//6 22//6
f 23//8 24//8 21//8
f 25//18 26//18 24//18
f 19//5 22//5 26//5
f 21//1 24//1 26//1
f 23//10 20//10 19//10
f 1//1 2//1 4//1
f 2//21 1//2 6//4
f 2//5 6//5 3//5
f 4//7 3//6 8//7
f 5//8 1//8 8//8
f 9//9 10//9 12//9
f 12//10 11//10 14//10
f 8//7 7//7 15//12
f 14//13 13//13 15//13
f 9//14 17//14 10//14
f 15//17 16//15 8//17
f 15//6 9//6 14//6
f 11//18 10//18 13//18
f 6//4 5//3 10//20
f 19//6 20//6 22//6
f 20//8 23//8 21//8
f 23//18 25//18 24//18
f 25//5 19//5 26//5
f 22//1 21//1 26//1
f 25//10 23//10 19//10
