# Blender v2.76 (sub 0) OBJ File: ''
# www.blender.org
mtllib chest_closed.mtl
o Cube.001
v 0.899520 -0.594207 -0.556073
v 0.899520 -0.594207 0.594260
v -0.899046 -0.594207 0.594260
v -0.899046 -0.594207 -0.556073
v 0.899520 0.199877 -0.556072
v 0.898650 0.199380 0.594260
v -0.899046 0.199877 0.594260
v -0.899002 0.199629 -0.556073
v -0.898959 0.537454 0.484413
v 0.898650 0.537454 0.484413
v 0.898650 0.746396 0.196830
v -0.898959 0.746396 0.196830
v 0.898650 0.746396 -0.158642
v -0.898959 0.746396 -0.158642
v -0.898959 0.537454 -0.446226
v 0.898650 0.537454 -0.446226
v -0.898616 0.199380 0.594260
v 0.898650 0.199380 -0.556073
v -0.140683 0.281306 0.686921
v -0.140683 0.281306 0.575774
v -0.140683 -0.006278 0.575774
v -0.140683 -0.006278 0.686921
v 0.140717 0.281306 0.575774
v 0.140717 -0.006278 0.575774
v 0.140717 0.281306 0.686921
v 0.140717 -0.006278 0.686921
vn 0.000000 -1.000000 -0.000000
vn 1.000000 0.000500 0.000400
vn 0.000000 -0.000000 1.000000
vn -1.000000 0.000000 -0.000000
vn 0.000000 0.000000 -1.000000
vn 0.000000 0.809000 0.587800
vn 0.000000 1.000000 0.000000
vn -1.000000 0.000200 -0.000000
vn 0.000000 0.809000 -0.587800
vn 0.000000 0.309000 0.951100
vn 0.000000 0.309100 -0.951000
vn 1.000000 0.000000 0.000000
vn 1.000000 0.001300 0.000400
usemtl Material.001
s off
f 1//1 2//1 3//1 4//1
f 1//2 5//2 6//2 2//2
f 2//3 6//3 7//3 3//3
f 3//4 7//4 8//4 4//4
f 5//5 1//5 4//5 8//5
f 9//6 10//6 11//6 12//6
f 12//7 11//7 13//7 14//7
f 8//8 7//8 9//8 15//8
f 14//9 13//9 16//9 15//9
f 17//10 6//10 10//10 9//10
f 15//11 16//11 18//11 8//11
f 15//4 9//4 12//4 14//4
f 11//12 10//12 16//12 13//12
f 5//13 16//13 10//13 6//13
f 19//4 20//4 21//4 22//4
f 20//5 23//5 24//5 21//5
f 23//12 25//12 26//12 24//12
f 25//3 19//3 22//3 26//3
f 22//1 21//1 24//1 26//1
f 25//7 23//7 20//7 19//7
